<svg xmlns="http://www.w3.org/2000/svg" viewBox="0 0 700 360"><defs><style>.cls-1{isolation:isolate;}.cls-2,.cls-3{fill:#bf5486;}.cls-2{mix-blend-mode:multiply;opacity:0.6;}.cls-4{fill:#f2b6cc;}</style></defs><g class="cls-1"><g id="Layer_4" data-name="Layer 4"><ellipse class="cls-2" cx="350" cy="304.94" rx="323.5" ry="15.93"/></g><g id="Layer_5_copy" data-name="Layer 5 copy"><path class="cls-3" d="M668,217.44c10.2-19.8-3.61-46.15-6.81-67.13-.37-3.95-1.57-13.75-2.84-24.12-2.38-19.58-5.72-52.16-6.95-64.14-.57-14-13.38-33.18-30.08-31.71-8.17,1.27-14.93.7-23.32.28-8.34-.14-17.69,3.35-26.62,5.71-51.25,9.47-48,44.91-34.06,73.37a106.31,106.31,0,0,0-24-3.14c-6.68-22.24-22-42.54-39.91-51.81-49-26.54-83.82-18.48-129.32-18.63-23.51-.27-41,2.66-40.72,33.76.08,10.4-4.63,21.06-4.58,30A55.4,55.4,0,0,0,279,109.4c-7.47-.05-15.33-.55-23.07-.56.47-14.92,1.29-30.13,2.12-39.64a26.33,26.33,0,0,0-.58-20.84A21.75,21.75,0,0,0,242.69,36.8c-7.06-1.55-28.2-5.51-39.83-4.46C170.15,34.26,164.52,46.26,168,75.77c-4.29-13.42-3.28-29.33-20.13-36.06-16.54-6.24-27.22-.63-44.42,3.81-11.27,4.35-14.85,1.39-26.06,7.64-13.23,7.4-10.21,27.69-8.07,41.74.85,6.82,1.52,16.44,2.69,24.5-.87.33-1.76.7-2.66,1.09C64,121,55.73,121.85,49.44,122.11c-30.77-.18-33,30.74-21.74,45.86,1.71,3.23.95,2,2.81,12.44a22.77,22.77,0,0,0,2.62,7.91,26.08,26.08,0,0,0-1.51,10.27c.37,10.65,8,24.44,9.33,33.53,1.56,10.39,6.38,33.67,8.18,41.34,2.28,10.78,12.54,22.19,29.81,21.94,8.78-.24,18.33-2.78,23.15-5.09,4.92-2.05,12.21-3.3,18.52-5.83a15.5,15.5,0,0,0,1.94,2.21c5.86,5.69,16.24,9.27,26.47,9.12,7.3.11,14.64-2.71,21.14-5.2l.43-.18c-5.56,11-7.13,22.94,4.14,32.9,10,13.12,35.65,25.72,54.45,25.25,14.77-.8,19.45-6.09,24.89-13.71,18.43-26.75,28.43-29.62,62.43-31.2,13.07-2.21,32.06-8.62,45.27-20.85,5.42,2.17,12.21,3.8,23,4.56,32-.14,41.39-23.62,39.32-32.66-.38-9.09-.39-42.5-.06-61.28,2.13-.15,4.2-.27,6.24-.39-.56,16.55,1,34.79,7.14,46.25C446.27,258.49,452.3,271,469,281.05c11.41,7.86,28.1,18,51.52,17.61,23.44-.86,40.76-9.08,53.94-21.77,3.79,14.63,13.12,23.52,30.34,24.24,5.73.15,10.68-2.3,15.37-3.3,3.17-.54,15.75-.75,19.11-.11,33.36,4.7,34.17-23.39,33.28-46.77C674.3,235.65,673.32,224.42,668,217.44Z"/></g><g id="Layer_3" data-name="Layer 3"><path class="cls-4" d="M50.68,139.5c-4.25,0-13.92.86-13.79,9.93S41.27,162,42.65,165.5,44,169.12,46,181.16c1.62,10.07,20.07,3.39,26.14,2.83,8.69-.82,14.33-3.42,20.94-5.51s7.42-4.18,8-6.73c.91-4.27.1-8-1.36-17.47s-2.84-16.15-6.58-19.16a14.1,14.1,0,0,0-12.2-2.47c-3.32.77-5.75,2.81-10.15,4S56.23,139.51,50.68,139.5Z"/><path class="cls-4" d="M56.22,231.67c.8,4.12,2.3,13.32,2.89,16.55,1.16,6.24,5.23,24.48,5.23,24.48s2.38,11.69,17.62,9.92,13-4.84,29.53-8.17,4.88-14.67,3.4-24.61-4.09-22.94-6.83-29.1-3.61-20.3-3.9-24.72S100,182.14,93.34,182.46,83.2,185,77.46,186.23s-20.06,2.72-22.3,3c-4.41.51-8.33,5.43-8,11s3,11.68,5.35,18.28A84.14,84.14,0,0,1,56.22,231.67Z"/><path class="cls-4" d="M94.94,63.86c-4.14.54-12.94.19-12.12,11.46s2,18.14,2.68,24.19c.69,6.48,1.66,23.2,3.69,25.83s2.06,4.61,5.75,7.21,6.7,4.55,8.58,19.79,3.3,17.21,1.29,20.55c-.33.56-4.67,2.11-4.24,5,.66,4.57,8.34,19.44,7.34,25.78-1.24,7.89,10.16,36.69,10.16,36.69s12.11,34.66,15.48,37.93,14,7.1,24.6,3.3,17.16-6.56,23.45-8,9.87-5.45,4.4-17-15.94-46.56-15.94-46.56-2.1-4.35-.41-5.3A113.38,113.38,0,0,1,180.2,200s4.6-2.72,5,1.25,3.61,43.09,4.08,52,3.83,12.89,5.84,14.18,12.67,4.14,21.3,4a81.89,81.89,0,0,0,25.15-4.68c5.15-2,7.9-4.09,4.66-21.63L243,227.64s-3-25.18-1.54-37.48-.79-55.07-.51-58.39,1.45-60.42,3.38-64.76,2.15-11.65-4.51-13.21-27-4.92-34.9-4.14-17.33,1.69-20.17,4.94c-3.07,3.51-1.9,6.66-1.39,18.6s1.86,37.14,1.86,37.14.51,35.17-1.45,36.85-19.12,5.22-21.5,5c-2.66-.29-5.28,2.07-5.5-13.19s1-44.15-2.82-57.37-3.65-22.84-10.66-25.39S134,54,128,55.09C119.72,56.54,99.12,63.32,94.94,63.86Z"/><path class="cls-4" d="M282.54,140.83c1.49-11.63-1-12.26-2.69-13.56s-11.82-.54-15.77-.61-11.63-1-15.6-.27-3.5,10.34-3.5,10.34.43,20.65.4,27.54c0,8.5-.61,26.72.16,34s.66,21.24,1.24,28c.42,5,.62,8.29,11.38,18.08s24.37,10.27,37.29,9.09,21.07-11.59,21.07-11.59-4.09,11.39-18.2,14.86c-14.39,3.55-28.62-1.49-29.56-1.89-1.94-.82-4.37-4.08-7.52-3.87s-8.63-.21-9.6,1.46-2,1.86-1.57,6.33-3.49,11-11.6,12.45-26.33,3.2-32.47,3.12a23.31,23.31,0,0,0-9.84,8.61c-3.89,6.19-8.15,10.07-10.09,13.58s-8,11.73-.9,17.93,8.79,11.32,23.31,16.75,26.48,7.09,31.69.37,22.88-35.67,48.9-38l26-2.37s44-7.61,47.27-35.69,7-31.09-5.05-62.61-13.13-34.16-14.52-38.46c-.67-2-1.6-20.08-1.19-25.89s-4.47-10.88-8.86-10.81c-5.76.1-19.32-1.63-24.34-1.82s-12.18,3.25-16.18,5.38c-3.7,2-6.68,5.1-7.15,10.06-.34,3.5,3.65,11.73,5.06,17.68s5.21,22.82,5.29,32.94.67,16.21.63,20.07a6.15,6.15,0,0,1-7.89,5.75c-4.16-1.34-8.11-10.5-9-17.79-.68-5.29.77-27.55,2-35.37C282.07,148.22,282.54,140.83,282.54,140.83Z"/><path class="cls-4" d="M385.46,52.69c25.31.16,52,.53,80.89,17.41C493.9,86.2,501,111,502.13,135c1.2,24.58-22,37.82-39.88,42.06s-52,4.07-52,4.07c-1,4-1,64.72-.54,76.66s-10.73,15.75-22.32,16.92-24.65-6-24.65-6c5.84-9.38,7.24-27.65,6.75-38.26-.62-13.59-1.11-19.73-7.51-37.39-6.22-17.16-16.82-38.58-16.82-38.58s.12-37.5-1.22-38.47-12.37-.49-20.26-1.62c-8.22-1.17-8.33-7.76-9-10.4s-.18-6.8,2.35-15.47,1.29-25.24,4.2-30.26,14.46-4.41,19.52-4.59C355.6,53.12,367.86,52.57,385.46,52.69Zm25,55.71-2.81,34.89s38.73,2.44,36.31-13.14c-2.26-14.52-9.27-18-16.89-20.33C420,107.69,410.49,108.4,410.49,108.4Z"/><path class="cls-4" d="M442.8,185.59c-.08.62-4.11,29.74,5,49,8.93,18.85,12,26.23,24.06,34.17,11.75,7.75,23.13,16.25,43.71,16.62s48.93-12.66,58.9-34.37,13.16-30.39,15.4-36.06c2.16-5.46.45-15.27-7.88-17.47s-24-5.63-24-5.63-10.33-2.84-13.94-.13-5.45,13.68-9,21.37-11.17,23-22.56,23.55c-10,.47-24.12-1.82-27.4-13.21,0,0,30.89-6.84,50.37-27.6,19.2-20.48,23.5-29.38,22-41.14-1.12-8.61-3.55-15.54-13.27-22.37-9.1-6.4-24-9.94-38-9.07,0,0,2.54,14.56-2.59,26.91,0,0,10.08,9.15,5.9,17.84-4.93,10.22-11.42,13.43-15.72,14.82C485.77,185.47,482,186.68,481,185c-2.21-3.56-2.12-8.93-2.12-8.93S456.74,185.72,442.8,185.59Z"/><path class="cls-4" d="M642.09,285.28c4.82.73,13.91,1.78,15.39-9.23s.3-13.33.4-17.92c.13-6.2.81-9,.76-23.91,0-12.48-21.43-6.32-28.41-6.66-10-.49-23.29,1.26-31.16,2.66s-11.39,6.7-12.46,9.69c-1.81,5,1.42,7.7,1.38,19.45s1.51,19.73,5.21,24a15.39,15.39,0,0,0,13.4,5.08c3.91-.37,7-2.44,12.23-3.11S635.8,284.33,642.09,285.28Z"/><path class="cls-4" d="M646.75,154.09c-.67-7.28-4.78-39.08-5.28-44.79C640.5,98.28,637,66,637,66S635,45.37,619.67,48s-17.51-2.81-34.15,2.49-41.33,7.91-41.44,25.49c-.13,20.45,11.72,39.31,17.6,46.87,5.05,6.49,18.75,55.39,17.58,68.43-.16,1.79,5.64-.41,12.09,9.45,6.55,10-2.62,25.59.37,25.88,7.73.74,21.31-4.2,30.49-2.77,6.65,1,20.22-.37,24.85-2.68,7-3.49,13.18-16.53,9.91-26C653.8,185.88,647.3,160.05,646.75,154.09Z"/></g></g></svg>