<svg xmlns="http://www.w3.org/2000/svg" viewBox="0 0 700 360"><defs><style>.cls-1{isolation:isolate;}.cls-2,.cls-3,.cls-8{fill:#bf5486;}.cls-2{mix-blend-mode:multiply;}.cls-2,.cls-5,.cls-7{opacity:0.6;}.cls-4{fill:#f2b6cc;}.cls-5,.cls-7{mix-blend-mode:overlay;}.cls-6,.cls-7{fill:#fff4ca;}.cls-8{opacity:0.5;}</style></defs><g class="cls-1"><g id="Layer_4" data-name="Layer 4"><ellipse class="cls-2" cx="350" cy="304.94" rx="323.5" ry="15.93"/></g><g id="Layer_5_copy" data-name="Layer 5 copy"><path class="cls-3" d="M668,217.44c10.2-19.8-3.61-46.15-6.81-67.13-.37-3.95-1.57-13.75-2.84-24.12-2.38-19.58-5.72-52.16-6.95-64.14-.57-14-13.38-33.18-30.08-31.71-8.17,1.27-14.93.7-23.32.28-8.34-.14-17.69,3.35-26.62,5.71-51.25,9.47-48,44.91-34.06,73.37a106.31,106.31,0,0,0-24-3.14c-6.68-22.24-22-42.54-39.91-51.81-49-26.54-83.82-18.48-129.32-18.63-23.51-.27-41,2.66-40.72,33.76.08,10.4-4.63,21.06-4.58,30A55.4,55.4,0,0,0,279,109.4c-7.47-.05-15.33-.55-23.07-.56.47-14.92,1.29-30.13,2.12-39.64a26.33,26.33,0,0,0-.58-20.84A21.75,21.75,0,0,0,242.69,36.8c-7.06-1.55-28.2-5.51-39.83-4.46C170.15,34.26,164.52,46.26,168,75.77c-4.29-13.42-3.28-29.33-20.13-36.06-16.54-6.24-27.22-.63-44.42,3.81-11.27,4.35-14.85,1.39-26.06,7.64-13.23,7.4-10.21,27.69-8.07,41.74.85,6.82,1.52,16.44,2.69,24.5-.87.33-1.76.7-2.66,1.09C64,121,55.73,121.85,49.44,122.11c-30.77-.18-33,30.74-21.74,45.86,1.71,3.23.95,2,2.81,12.44a22.77,22.77,0,0,0,2.62,7.91,26.08,26.08,0,0,0-1.51,10.27c.37,10.65,8,24.44,9.33,33.53,1.56,10.39,6.38,33.67,8.18,41.34,2.28,10.78,12.54,22.19,29.81,21.94,8.78-.24,18.33-2.78,23.15-5.09,4.92-2.05,12.21-3.3,18.52-5.83a15.5,15.5,0,0,0,1.94,2.21c5.86,5.69,16.24,9.27,26.47,9.12,7.3.11,14.64-2.71,21.14-5.2l.43-.18c-5.56,11-7.13,22.94,4.14,32.9,10,13.12,35.65,25.72,54.45,25.25,14.77-.8,19.45-6.09,24.89-13.71,18.43-26.75,28.43-29.62,62.43-31.2,13.07-2.21,32.06-8.62,45.27-20.85,5.42,2.17,12.21,3.8,23,4.56,32-.14,41.39-23.62,39.32-32.66-.38-9.09-.39-42.5-.06-61.28,2.13-.15,4.2-.27,6.24-.39-.56,16.55,1,34.79,7.14,46.25C446.27,258.49,452.3,271,469,281.05c11.41,7.86,28.1,18,51.52,17.61,23.44-.86,40.76-9.08,53.94-21.77,3.79,14.63,13.12,23.52,30.34,24.24,5.73.15,10.68-2.3,15.37-3.3,3.17-.54,15.75-.75,19.11-.11,33.36,4.7,34.17-23.39,33.28-46.77C674.3,235.65,673.32,224.42,668,217.44Z"/></g><g id="Layer_3" data-name="Layer 3"><path class="cls-4" d="M50.68,139.5c-4.25,0-13.92.86-13.79,9.93S41.27,162,42.65,165.5,44,169.12,46,181.16c1.62,10.07,20.07,3.39,26.14,2.83,8.69-.82,14.33-3.42,20.94-5.51s7.42-4.18,8-6.73c.91-4.27.1-8-1.36-17.47s-2.84-16.15-6.58-19.16a14.1,14.1,0,0,0-12.2-2.47c-3.32.77-5.75,2.81-10.15,4S56.23,139.51,50.68,139.5Z"/><path class="cls-4" d="M56.22,231.67c.8,4.12,2.3,13.32,2.89,16.55,1.16,6.24,5.23,24.48,5.23,24.48s2.38,11.69,17.62,9.92,13-4.84,29.53-8.17,4.88-14.67,3.4-24.61-4.09-22.94-6.83-29.1-3.61-20.3-3.9-24.72S100,182.14,93.34,182.46,83.2,185,77.46,186.23s-20.06,2.72-22.3,3c-4.41.51-8.33,5.43-8,11s3,11.68,5.35,18.28A84.14,84.14,0,0,1,56.22,231.67Z"/><path class="cls-4" d="M94.94,63.86c-4.14.54-12.94.19-12.12,11.46s2,18.14,2.68,24.19c.69,6.48,1.66,23.2,3.69,25.83s2.06,4.61,5.75,7.21,6.7,4.55,8.58,19.79,3.3,17.21,1.29,20.55c-.33.56-4.67,2.11-4.24,5,.66,4.57,8.34,19.44,7.34,25.78-1.24,7.89,10.16,36.69,10.16,36.69s12.11,34.66,15.48,37.93,14,7.1,24.6,3.3,17.16-6.56,23.45-8,9.87-5.45,4.4-17-15.94-46.56-15.94-46.56-2.1-4.35-.41-5.3A113.38,113.38,0,0,1,180.2,200s4.6-2.72,5,1.25,3.61,43.09,4.08,52,3.83,12.89,5.84,14.18,12.67,4.14,21.3,4a81.89,81.89,0,0,0,25.15-4.68c5.15-2,7.9-4.09,4.66-21.63L243,227.64s-3-25.18-1.54-37.48-.79-55.07-.51-58.39,1.45-60.42,3.38-64.76,2.15-11.65-4.51-13.21-27-4.92-34.9-4.14-17.33,1.69-20.17,4.94c-3.07,3.51-1.9,6.66-1.39,18.6s1.86,37.14,1.86,37.14.51,35.17-1.45,36.85-19.12,5.22-21.5,5c-2.66-.29-5.28,2.07-5.5-13.19s1-44.15-2.82-57.37-3.65-22.84-10.66-25.39S134,54,128,55.09C119.72,56.54,99.12,63.32,94.94,63.86Z"/><path class="cls-4" d="M282.54,140.83c1.49-11.63-1-12.26-2.69-13.56s-11.82-.54-15.77-.61-11.63-1-15.6-.27-3.5,10.34-3.5,10.34.43,20.65.4,27.54c0,8.5-.61,26.72.16,34s.66,21.24,1.24,28c.42,5,.62,8.29,11.38,18.08s24.37,10.27,37.29,9.09,21.07-11.59,21.07-11.59-4.09,11.39-18.2,14.86c-14.39,3.55-28.62-1.49-29.56-1.89-1.94-.82-4.37-4.08-7.52-3.87s-8.63-.21-9.6,1.46-2,1.86-1.57,6.33-3.49,11-11.6,12.45-26.33,3.2-32.47,3.12a23.31,23.31,0,0,0-9.84,8.61c-3.89,6.19-8.15,10.07-10.09,13.58s-8,11.73-.9,17.93,8.79,11.32,23.31,16.75,26.48,7.09,31.69.37,22.88-35.67,48.9-38l26-2.37s44-7.61,47.27-35.69,7-31.09-5.05-62.61-13.13-34.16-14.52-38.46c-.67-2-1.6-20.08-1.19-25.89s-4.47-10.88-8.86-10.81c-5.76.1-19.32-1.63-24.34-1.82s-12.18,3.25-16.18,5.38c-3.7,2-6.68,5.1-7.15,10.06-.34,3.5,3.65,11.73,5.06,17.68s5.21,22.82,5.29,32.94.67,16.21.63,20.07a6.15,6.15,0,0,1-7.89,5.75c-4.16-1.34-8.11-10.5-9-17.79-.68-5.29.77-27.55,2-35.37C282.07,148.22,282.54,140.83,282.54,140.83Z"/><path class="cls-4" d="M385.46,52.69c25.31.16,52,.53,80.89,17.41C493.9,86.2,501,111,502.13,135c1.2,24.58-22,37.82-39.88,42.06s-52,4.07-52,4.07c-1,4-1,64.72-.54,76.66s-10.73,15.75-22.32,16.92-24.65-6-24.65-6c5.84-9.38,7.24-27.65,6.75-38.26-.62-13.59-1.11-19.73-7.51-37.39-6.22-17.16-16.82-38.58-16.82-38.58s.12-37.5-1.22-38.47-12.37-.49-20.26-1.62c-8.22-1.17-8.33-7.76-9-10.4s-.18-6.8,2.35-15.47,1.29-25.24,4.2-30.26,14.46-4.41,19.52-4.59C355.6,53.12,367.86,52.57,385.46,52.69Zm25,55.71-2.81,34.89s38.73,2.44,36.31-13.14c-2.26-14.52-9.27-18-16.89-20.33C420,107.69,410.49,108.4,410.49,108.4Z"/><path class="cls-4" d="M442.8,185.59c-.08.62-4.11,29.74,5,49,8.93,18.85,12,26.23,24.06,34.17,11.75,7.75,23.13,16.25,43.71,16.62s48.93-12.66,58.9-34.37,13.16-30.39,15.4-36.06c2.16-5.46.45-15.27-7.88-17.47s-24-5.63-24-5.63-10.33-2.84-13.94-.13-5.45,13.68-9,21.37-11.17,23-22.56,23.55c-10,.47-24.12-1.82-27.4-13.21,0,0,30.89-6.84,50.37-27.6,19.2-20.48,23.5-29.38,22-41.14-1.12-8.61-3.55-15.54-13.27-22.37-9.1-6.4-24-9.94-38-9.07,0,0,2.54,14.56-2.59,26.91,0,0,10.08,9.15,5.9,17.84-4.93,10.22-11.42,13.43-15.72,14.82C485.77,185.47,482,186.68,481,185c-2.21-3.56-2.12-8.93-2.12-8.93S456.74,185.72,442.8,185.59Z"/><path class="cls-4" d="M642.09,285.28c4.82.73,13.91,1.78,15.39-9.23s.3-13.33.4-17.92c.13-6.2.81-9,.76-23.91,0-12.48-21.43-6.32-28.41-6.66-10-.49-23.29,1.26-31.16,2.66s-11.39,6.7-12.46,9.69c-1.81,5,1.42,7.7,1.38,19.45s1.51,19.73,5.21,24a15.39,15.39,0,0,0,13.4,5.08c3.91-.37,7-2.44,12.23-3.11S635.8,284.33,642.09,285.28Z"/><path class="cls-4" d="M646.75,154.09c-.67-7.28-4.78-39.08-5.28-44.79C640.5,98.28,637,66,637,66S635,45.37,619.67,48s-17.51-2.81-34.15,2.49-41.33,7.91-41.44,25.49c-.13,20.45,11.72,39.31,17.6,46.87,5.05,6.49,18.75,55.39,17.58,68.43-.16,1.79,5.64-.41,12.09,9.45,6.55,10-2.62,25.59.37,25.88,7.73.74,21.31-4.2,30.49-2.77,6.65,1,20.22-.37,24.85-2.68,7-3.49,13.18-16.53,9.91-26C653.8,185.88,647.3,160.05,646.75,154.09Z"/></g><g id="Layer_6" data-name="Layer 6"><g class="cls-5"><path class="cls-6" d="M82.11,146.72a9.68,9.68,0,0,0,8.33-5.36c1.18-2.82-.28-5.33-3.44-5.33a9.67,9.67,0,0,0-8.32,5.36c-1.19,2.82.28,5.33,3.43,5.33Z"/></g><path class="cls-7" d="M70.89,140.6c-7.47,2.28-15.15.82-21.53,6.4-6.56,5.74-6.48,13.78-4.45,21.6,1.68,6.47,14.08.24,12.64-5.3a32.69,32.69,0,0,1-1.31-7.13,7.85,7.85,0,0,1,.29-3c.77-1.56-.25-.09.21-.38,1.11-.73,4.15-.52,5.4-.64a35.25,35.25,0,0,0,7-1.21c3-.91,6.74-3.06,7.19-6.54.39-3.09-2.71-4.62-5.44-3.79Z"/><path class="cls-7" d="M138.77,60.31a11.37,11.37,0,0,0-10,7.79c-1.32,3.48.21,7.85,3.79,8.63,4.62,1.28,10-1.85,12-6.39,1.48-3.26,1.26-8-1.93-9.34A24.17,24.17,0,0,0,138.77,60.31Z"/><path class="cls-7" d="M118.31,79.45c6.15-1.51,10.29-18.09.65-16.85h0c-9.24,2.09-21,3.63-27.86,10.55C87.35,76.93,87,87.21,88.66,95.71c1,5,6.16,4.53,8.52,1.44,1.9-2.48,2.4-12.31,5.09-13.83C106.25,81.08,113.87,80.54,118.31,79.45Z"/><path class="cls-7" d="M198.19,61.07c-7.45,3.23-11.48,12.35-10,20.61,1.18,6.78,11.82,0,12.62-4,1.68-8.46,16.09-8.07,22.82-9.15,6.31-1,11.16-12.56,2.11-11.11C220.12,56.84,204.71,57.92,198.19,61.07Z"/><path class="cls-7" d="M332.76,96.7c5.49-4.75,3.83-12.71,4-16a5.65,5.65,0,0,1,1.65-3.87c2.29-2.13,5.49-1.85,8.42-2.27,6.39-.94,12.95-4.44,15.3-10.8.68-1.86.58-4.81-2-5.15-10.82-1.43-23-2.6-31.72,5.43-4.24,3.93-5.84,9-7.06,14.2C317.73,93.67,323.29,104.9,332.76,96.7Z"/><path class="cls-7" d="M365.38,69.13c3.87,5,15.89-1.54,13.38-6.85C374.26,52.77,360.39,60.48,365.38,69.13Z"/><path class="cls-7" d="M306.91,135.18c3.07-1.45,6.95-1.16,8.92-3.84,1.48-2,2.13-5.85-1.21-6.51h0c-7-1.39-14.55-.77-19.88,4.57-4.27,4.27-6.13,11-1.39,15.53,2.8,2.68,8.9-.93,10.1-3.32C304.27,140,305.26,136,306.91,135.18Z"/><path class="cls-7" d="M618,58.06c-13.7-3.37-52.15,1.32-63.44,9.77-9.07,7.42,5.74,31.18,9.3,40.41,2.27,3.85,9.38.71,11.61-3.31,4-6-4.84-13.26-3.78-20.33C572.45,68,598,66.92,610.28,68.4,615.57,70.18,625.09,60.44,618,58.06Z"/><path class="cls-7" d="M75.06,190.2c-25.33-2.46-29,27.89-14.59,23.53,6-2.84,6.3-5.88,4.28-11.75,0-.87.53-1.57-.06-.93-.82.89.73,0,1.41-.11,7.71,2,19.15-8.2,9-10.74Z"/><path class="cls-7" d="M445.81,203.44A56.43,56.43,0,0,0,456.23,239c3.58,5,15.29-2.69,11.77-7.58a49.48,49.48,0,0,1-9.58-30.77c.27-7.52-12.41-2.86-12.61,2.75Z"/><path class="cls-7" d="M515.42,137.75a22.92,22.92,0,0,1,12.12,3.11c2.88,1.66,6.69,0,8.93-2,1.65-1.54,4-5.59,1.13-7.28a33,33,0,0,0-17.29-4.47,9.73,9.73,0,0,0-8.32,5.36c-1.23,2.76.31,5.38,3.43,5.32Z"/><path class="cls-7" d="M596,236.19a28.44,28.44,0,0,0-6,19.61c.24,3.34,5,2.85,7.1,2,2.87-1.2,5.78-4,5.54-7.29a16.8,16.8,0,0,1,3.45-11.63c1.65-2.16,1.91-5.64-1.21-6.52s-7,1.37-8.92,3.84Z"/><path class="cls-7" d="M578.75,110.94c-2.84-1.37-7.24,1.15-8.92,3.84h0c-5.32,6.64.3,14.93,8.32,11.13C585.9,121.8,587.23,115.25,578.75,110.94Z"/><path class="cls-7" d="M445.6,76.7a41.12,41.12,0,0,1,16.29,10c2.31,2.35,5.72,1.64,8.31,0,1.67-1.08,5.74-5.23,3.46-7.56a50.35,50.35,0,0,0-20.35-12.81c-5.3-1.76-14.81,8-7.71,10.35Z"/><path class="cls-8" d="M114.82,263c-4.15-11.31-1.26-24.47-9.24-34.47-3.65-5.24-12.33-.25-8.63,5.05,11.1,15.9,3.59,27.23-12.85,33.48-6.24,1.53-3.6,11.18,2.66,9.65,6.67-1.64,13.36-3.19,20-4.9C111.2,270.7,115.29,268.24,114.82,263Z"/><path class="cls-8" d="M172.19,236.34c-2.09-3.26-8.42-3.33-9.14,1.2-1.71,6.79,4.32,13.16-.65,19.24-5.76,10.52-21,8-21.55,14.63-1.88,3.07.83,8.57,5.67,7.77a189.23,189.23,0,0,0,19.56-4.24C189,270.7,181.94,250.18,172.19,236.34Z"/><path class="cls-8" d="M238.66,242.51c-.09-6.45-10.13-6.47-10,0,.24,2,3.11,13.07-1.56,12.22-6.29-1.16-9,8.48-2.66,9.64C238,266.93,241.68,253.16,238.66,242.51Z"/><path class="cls-8" d="M212,254.74h-6.63c-6.46-.05-6.48,10,0,10H212C218.47,264.79,218.49,254.72,212,254.74Z"/><path class="cls-8" d="M306.76,232.79c-12.66,9.79-42.45,4.71-48-11.08-3.7-9.06-17.35-.33-3.6,13.16,10.84,14.31,40.26,21.33,54.25,8.1C317,240.67,314.12,228.76,306.76,232.79Z"/><path class="cls-8" d="M342.44,246c-.59,14-12.06,23.76-24.73,27.56-13.63,4.09-27.86,3-41.24,8.55-12.44,5.14-22.9,13.17-33.17,21.7-8.05,6.69-21.53,16.48-32,9.54a4.88,4.88,0,0,0-2.68-1.94c-4.74-2.5-10.58,3.86-6,7.78.41.36.83.69,1.25,1a12.86,12.86,0,0,0,6.53,4.55c4.43,1.59,8.5,4.61,13.12,5.56a13.25,13.25,0,0,0,11.45-3.26c3.52-3.05,5.15-8,8.85-10.74a6,6,0,0,0,.74-.66c11.85-8.71,22.21-18.93,36.21-24.53,15.12-6.05,31.91-4,46.85-10.61,14-6.21,24.23-19,24.89-34.51C352.72,239.56,342.72,239.57,342.44,246Z"/><path class="cls-8" d="M347.92,219.8c-6.07.29-5,7.33-5.56,11.63-.22,2.61,2.46,5.11,5,5,6.07-.29,5-7.33,5.56-11.63C353.14,222.19,350.46,219.69,347.92,219.8Z"/><path class="cls-8" d="M404.67,249.67c3.93-10.06-7.33-15.88-9.61-6.09.79,5.33-2.44,4.18-4.32,7.76-3.42,1.21-6.8,2.7-10.29,1.57-2.78-3.21-9.25-2.26-8.79,2.94C370.61,279.65,408.34,270.68,404.67,249.67Z"/><path class="cls-8" d="M442.52,164.34c-9.29,2.13-19.59,3.91-29,2.19-5.47-3.42-10.5,5.23-5.05,8.63,11.25,4.66,25.12,1,36.69-1.18C451.42,172.4,448.77,162.76,442.52,164.34Z"/><path class="cls-8" d="M569.69,222.39c-8,18.4-20.27,36.93-37.2,47.29-6.41.61-6.71,10.86-.2,10,11.49-3.32,25.57-10.15,32.79-20.12,6.78-9.87,11.65-22.93,14.25-34.55C580.77,218.65,572,216.51,569.69,222.39Z"/><path class="cls-8" d="M642.77,193.21c-8.29,1.67-9.86,12.17-18,14.42-3.87,1.38-4.17,5.87-2.28,8.32,2.62,8.45,15.63,3.66,20.09-1C647.12,210.45,654.36,192.35,642.77,193.21Z"/><path class="cls-8" d="M653.32,262.07c-5.25-6.92-12.69,1.51-14.42,7.37-2.52-.13-5-.85-7.52-1.15-6.11-.75-11.64.89-17,3.8-5.65,3.09-.61,11.73,5,8.64,4.68-2.55,8.6-2.93,13.79-2.07C643.86,282.32,658.57,274.49,653.32,262.07Z"/><path class="cls-8" d="M654.07,246.57c-2.12-10.44-15.9-.82-10.61,6.42C647.51,258.16,656.07,252.43,654.07,246.57Z"/><path class="cls-8" d="M612.41,211.66c-1.76-9.91-18-2.36-12.81,5.86C603.79,224.16,613.62,218.63,612.41,211.66Z"/></g></g></svg>