<svg xmlns="http://www.w3.org/2000/svg" viewBox="0 0 338 136"><defs><style>.cls-1{isolation:isolate;}.cls-2{fill:#bf5486;mix-blend-mode:multiply;opacity:0.6;}.cls-3{fill:#53b;}.cls-4{fill:#fff4ca;mix-blend-mode:overlay;}</style></defs><g class="cls-1"><g id="Layer_1" data-name="Layer 1"><path class="cls-2" d="M330,2H11a8,8,0,0,0-8,8V94a8,8,0,0,0,8,8h5a3,3,0,0,1,3,3v27.76a3,3,0,0,0,5.12,2.12l32-32a3,3,0,0,1,2.12-.88H330a8,8,0,0,0,8-8V10A8,8,0,0,0,330,2Z"/><path class="cls-3" d="M327,0H8A8,8,0,0,0,0,8V92a8,8,0,0,0,8,8h5a3,3,0,0,1,3,3v27.76a3,3,0,0,0,5.12,2.12l32-32a3,3,0,0,1,2.12-.88H327a8,8,0,0,0,8-8V8A8,8,0,0,0,327,0Z"/><path class="cls-4" d="M4,12V6A2,2,0,0,1,6,4H329a2,2,0,0,1,2,2h0a2,2,0,0,1-2,2H10a2,2,0,0,0-2,2v2a2.07,2.07,0,0,1-2,2A1.9,1.9,0,0,1,4,12Z"/><path class="cls-2" d="M331,88v6a2,2,0,0,1-2,2H60a2,2,0,0,1-2-2h0a2,2,0,0,1,2-2H325a2,2,0,0,0,2-2V88a2.07,2.07,0,0,1,2-2A1.9,1.9,0,0,1,331,88Z"/></g></g></svg>