<svg xmlns="http://www.w3.org/2000/svg" viewBox="0 0 50 55"><defs><style>.cls-1{isolation:isolate;}.cls-2{fill:#5b7ad9;}.cls-3{fill:#bf5486;mix-blend-mode:multiply;opacity:0.6;}.cls-4{fill:#fff4ca;mix-blend-mode:overlay;}</style></defs><g class="cls-1"><g id="Layer_1" data-name="Layer 1"><rect class="cls-2" width="50" height="50" rx="8"/><rect class="cls-2" y="1" width="50" height="50" rx="8"/><rect class="cls-3" y="5" width="50" height="50" rx="8"/><rect class="cls-2" y="2" width="50" height="50" rx="8"/><path class="cls-4" d="M17,3H4.5A1.5,1.5,0,0,0,3,4.5v3A1.5,1.5,0,0,0,4.5,9h0A1.5,1.5,0,0,0,6,7.5H6A1.5,1.5,0,0,1,7.5,6h35A1.5,1.5,0,0,1,44,7.5h0A1.5,1.5,0,0,0,45.5,9h0A1.5,1.5,0,0,0,47,7.5v-3A1.5,1.5,0,0,0,45.5,3H17Z"/><path class="cls-3" d="M17,49H4.5A1.5,1.5,0,0,1,3,47.5v-3A1.5,1.5,0,0,1,4.5,43h0A1.5,1.5,0,0,1,6,44.5H6A1.5,1.5,0,0,0,7.5,46h35A1.5,1.5,0,0,0,44,44.5h0A1.5,1.5,0,0,1,45.5,43h0A1.5,1.5,0,0,1,47,44.5v3A1.5,1.5,0,0,1,45.5,49H17Z"/></g></g></svg>