<svg xmlns="http://www.w3.org/2000/svg" viewBox="0 0 338 136"><defs><style>.cls-1{isolation:isolate;}.cls-2{fill:#bf5486;mix-blend-mode:multiply;opacity:0.6;}.cls-3{fill:#5b7ad9;}.cls-4{fill:#fff4ca;mix-blend-mode:overlay;}</style></defs><g class="cls-1"><g id="Layer_1" data-name="Layer 1"><path class="cls-2" d="M8,2H327a8,8,0,0,1,8,8V94a8,8,0,0,1-8,8h-5a3,3,0,0,0-3,3v27.75a3,3,0,0,1-5.12,2.12l-32-32a3,3,0,0,0-2.12-.88H8a8,8,0,0,1-8-8V10A8,8,0,0,1,8,2Z"/><path class="cls-3" d="M11,0H330a8,8,0,0,1,8,8V92a8,8,0,0,1-8,8h-5a3,3,0,0,0-3,3v27.76a3,3,0,0,1-5.12,2.12l-32-32a3,3,0,0,0-2.12-.88H11a8,8,0,0,1-8-8V8A8,8,0,0,1,11,0Z"/><path class="cls-4" d="M334,12V6a2,2,0,0,0-2-2H9A2,2,0,0,0,7,6H7A2,2,0,0,0,9,8H328a2,2,0,0,1,2,2v2a2.07,2.07,0,0,0,2,2A1.9,1.9,0,0,0,334,12Z"/><path class="cls-2" d="M7,88v6a2,2,0,0,0,2,2H278a2,2,0,0,0,2-2h0a2,2,0,0,0-2-2H13a2,2,0,0,1-2-2V88a2.07,2.07,0,0,0-2-2A1.9,1.9,0,0,0,7,88Z"/></g></g></svg>